<svg width="36" height="36" viewBox="0 0 36 36" fill="none" xmlns="http://www.w3.org/2000/svg">
  <path fill-rule="evenodd" clip-rule="evenodd" d="M18 36C27.9412 36 36 27.9411 36 18C36 8.05888 27.9412 0 18 0C8.05887 0 0 8.05888 0 18C0 27.9411 8.05887 36 18 36ZM20.7783 13.9073C22.3126 12.3729 22.3126 9.88521 20.7783 8.3508C19.2439 6.81641 16.7562 6.81641 15.2218 8.3508C13.6874 9.88521 13.6874 12.3729 15.2218 13.9073L18 16.6855L20.7783 13.9073ZM22.0927 20.7783C23.6271 22.3127 26.1148 22.3127 27.6493 20.7783C29.1836 19.2439 29.1836 16.7562 27.6493 15.2218C26.1148 13.6874 23.6271 13.6874 22.0927 15.2218L19.3145 18.0001L22.0927 20.7783ZM20.7783 27.6493C22.3126 26.1148 22.3126 23.6271 20.7783 22.0927L18 19.3145L15.2218 22.0927C13.6874 23.6271 13.6874 26.1148 15.2218 27.6493C16.7562 29.1837 19.2439 29.1837 20.7783 27.6493ZM8.35077 20.7783C6.81642 19.2439 6.81642 16.7562 8.35077 15.2218C9.88521 13.6874 12.3729 13.6874 13.9073 15.2218L16.6855 18.0001L13.9073 20.7783C12.3729 22.3127 9.88521 22.3127 8.35077 20.7783Z" fill="#0D903A"/>
</svg>
